# xmcd CD database file
#
# Track frame offsets:
#	150
#	30930
#	76225
#	100450
#	123040
#	147865
#	170380
#	200080
#	238720
#	264640
#
# Disc length: 3874 seconds
#
# Revision: 2
# Processed by: cddbd v1.5.2PL0 Copyright (c) Steve Scherf et al.
# Submitted via: CDex 1.51
#
DISCID=7f0f200a
DTITLE=Bruce Barth - Live At The Village Vanguard
DYEAR=2002
DGENRE=Jazz
TTITLE0=Little Ditty
TTITLE1=Star Eyes
TTITLE2=In The Still Of The Night
TTITLE3=Song For Alex
TTITLE4=San Francisco Holiday
TTITLE5=Evidence
TTITLE6=Let's Call This
TTITLE7=Days Of June
TTITLE8=Prospect Avenue Blues
TTITLE9=When The Sun Comes Out
EXTD=YEAR: 2002
EXTT0=
EXTT1=
EXTT2=
EXTT3=
EXTT4=
EXTT5=
EXTT6=
EXTT7=
EXTT8=
EXTT9=
PLAYORDER=
